<svg width="58" height="58" viewBox="0 0 58 58" fill="none" xmlns="http://www.w3.org/2000/svg">
<path d="M43.5 48.3335C43.5 44.4879 41.9723 40.7997 39.253 38.0804C36.5338 35.3612 32.8456 33.8335 29 33.8335M29 33.8335C25.1544 33.8335 21.4662 35.3612 18.7469 38.0804C16.0277 40.7997 14.5 44.4879 14.5 48.3335M29 33.8335C34.3387 33.8335 38.6667 29.5056 38.6667 24.1668C38.6667 18.8281 34.3387 14.5002 29 14.5002C23.6612 14.5002 19.3333 18.8281 19.3333 24.1668C19.3333 29.5056 23.6612 33.8335 29 33.8335ZM53.1667 29.0002C53.1667 42.347 42.3469 53.1668 29 53.1668C15.6531 53.1668 4.83333 42.347 4.83333 29.0002C4.83333 15.6533 15.6531 4.8335 29 4.8335C42.3469 4.8335 53.1667 15.6533 53.1667 29.0002Z" stroke="white" stroke-width="4" stroke-linecap="round" stroke-linejoin="round"/>
</svg>
