<svg width="637" height="175" viewBox="0 0 637 175" fill="none" xmlns="http://www.w3.org/2000/svg">
<path d="M116.667 25.5208C116.667 19.4802 111.77 14.5833 105.729 14.5833C99.6885 14.5833 94.7917 19.4802 94.7917 25.5208V61.9792C94.7917 68.0198 99.6885 72.9167 105.729 72.9167C111.77 72.9167 116.667 68.0198 116.667 61.9792V25.5208Z" stroke="white" stroke-width="9" stroke-linecap="round" stroke-linejoin="round"/>
<path d="M138.542 61.9792V72.9167H149.479C151.642 72.9167 153.757 72.2752 155.556 71.0734C157.354 69.8715 158.756 68.1633 159.584 66.1648C160.412 64.1662 160.629 61.967 160.207 59.8454C159.785 57.7237 158.743 55.7748 157.213 54.2452C155.684 52.7155 153.735 51.6738 151.613 51.2518C149.491 50.8298 147.292 51.0464 145.294 51.8742C143.295 52.7021 141.587 54.104 140.385 55.9026C139.183 57.7013 138.542 59.8159 138.542 61.9792Z" stroke="white" stroke-width="9" stroke-linecap="round" stroke-linejoin="round"/>
<path d="M80.2083 113.021C80.2083 106.98 75.3115 102.083 69.2708 102.083C63.2302 102.083 58.3333 106.98 58.3333 113.021V149.479C58.3333 155.52 63.2302 160.417 69.2708 160.417C75.3115 160.417 80.2083 155.52 80.2083 149.479V113.021Z" stroke="white" stroke-width="9" stroke-linecap="round" stroke-linejoin="round"/>
<path d="M36.4583 113.021V102.083H25.5208C23.3576 102.083 21.2429 102.725 19.4443 103.927C17.6456 105.128 16.2437 106.837 15.4159 108.835C14.5881 110.834 14.3715 113.033 14.7935 115.155C15.2155 117.276 16.2572 119.225 17.7868 120.755C19.3165 122.284 21.2654 123.326 23.387 123.748C25.5087 124.17 27.7079 123.954 29.7064 123.126C31.705 122.298 33.4132 120.896 34.615 119.097C35.8168 117.299 36.4583 115.184 36.4583 113.021Z" stroke="white" stroke-width="9" stroke-linecap="round" stroke-linejoin="round"/>
<path d="M149.479 94.7917H113.021C106.98 94.7917 102.083 99.6885 102.083 105.729C102.083 111.77 106.98 116.667 113.021 116.667H149.479C155.52 116.667 160.417 111.77 160.417 105.729C160.417 99.6885 155.52 94.7917 149.479 94.7917Z" stroke="white" stroke-width="9" stroke-linecap="round" stroke-linejoin="round"/>
<path d="M113.021 138.542H102.083V149.479C102.083 151.642 102.725 153.757 103.927 155.556C105.128 157.354 106.837 158.756 108.835 159.584C110.834 160.412 113.033 160.629 115.155 160.207C117.276 159.785 119.225 158.743 120.755 157.213C122.284 155.684 123.326 153.735 123.748 151.613C124.17 149.491 123.954 147.292 123.126 145.294C122.298 143.295 120.896 141.587 119.097 140.385C117.299 139.183 115.184 138.542 113.021 138.542Z" stroke="white" stroke-width="9" stroke-linecap="round" stroke-linejoin="round"/>
<path d="M61.9791 58.3333H25.5208C19.4802 58.3333 14.5833 63.2302 14.5833 69.2708C14.5833 75.3115 19.4802 80.2083 25.5208 80.2083H61.9791C68.0198 80.2083 72.9166 75.3115 72.9166 69.2708C72.9166 63.2302 68.0198 58.3333 61.9791 58.3333Z" stroke="white" stroke-width="9" stroke-linecap="round" stroke-linejoin="round"/>
<path d="M61.9792 36.4583H72.9167V25.5208C72.9167 23.3576 72.2752 21.243 71.0734 19.4443C69.8715 17.6456 68.1633 16.2437 66.1648 15.4159C64.1662 14.5881 61.967 14.3715 59.8454 14.7935C57.7237 15.2155 55.7748 16.2572 54.2452 17.7869C52.7155 19.3165 51.6738 21.2654 51.2518 23.387C50.8298 25.5087 51.0464 27.7079 51.8742 29.7064C52.7021 31.705 54.104 33.4132 55.9026 34.615C57.7013 35.8169 59.8159 36.4583 61.9792 36.4583Z" stroke="white" stroke-width="9" stroke-linecap="round" stroke-linejoin="round"/>
<path d="M192.805 124.131L192.642 112.206H194.602L222.045 84.2727H233.97L204.73 113.839H203.913L192.805 124.131ZM183.821 147V63.3636H193.459V147H183.821ZM223.679 147L199.176 115.963L206.037 109.266L235.93 147H223.679ZM270.091 148.307C264.047 148.307 258.834 146.973 254.45 144.305C250.094 141.609 246.732 137.852 244.363 133.033C242.022 128.187 240.851 122.552 240.851 116.126C240.851 109.701 242.022 104.038 244.363 99.1378C246.732 94.21 250.026 90.3712 254.246 87.6214C258.493 84.8445 263.448 83.456 269.111 83.456C272.378 83.456 275.605 84.0005 278.79 85.0895C281.975 86.1785 284.875 87.9482 287.488 90.3984C290.102 92.8215 292.185 96.0341 293.737 100.036C295.289 104.038 296.064 108.966 296.064 114.82V118.903H247.712V110.572H286.263C286.263 107.033 285.555 103.875 284.14 101.098C282.751 98.321 280.764 96.1294 278.177 94.5231C275.618 92.9168 272.596 92.1136 269.111 92.1136C265.273 92.1136 261.951 93.0665 259.147 94.9723C256.37 96.8509 254.233 99.3011 252.735 102.323C251.238 105.345 250.489 108.585 250.489 112.043V117.597C250.489 122.334 251.306 126.35 252.939 129.644C254.6 132.911 256.901 135.402 259.841 137.117C262.781 138.805 266.198 139.649 270.091 139.649C272.623 139.649 274.91 139.295 276.952 138.587C279.021 137.852 280.805 136.763 282.302 135.32C283.799 133.85 284.957 132.026 285.773 129.848L295.084 132.462C294.104 135.62 292.457 138.397 290.143 140.793C287.829 143.161 284.97 145.013 281.567 146.347C278.164 147.653 274.339 148.307 270.091 148.307ZM354.014 147V155.984H301.741V147H354.014ZM430.35 63.3636V147H420.549L374.974 81.3324H374.157V147H364.029V63.3636H373.83L419.569 129.195H420.386V63.3636H430.35ZM455.517 170.523C453.883 170.523 452.427 170.387 451.147 170.114C449.867 169.869 448.983 169.624 448.493 169.379L450.943 160.885C453.284 161.484 455.353 161.702 457.15 161.538C458.947 161.375 460.54 160.572 461.928 159.129C463.344 157.713 464.637 155.413 465.808 152.227L467.605 147.327L444.409 84.2727H454.863L472.179 134.259H472.832L490.147 84.2727H500.602L473.975 156.148C472.778 159.388 471.294 162.069 469.524 164.193C467.754 166.344 465.699 167.936 463.358 168.971C461.043 170.005 458.43 170.523 455.517 170.523ZM522.961 109.266V147H513.323V84.2727H522.634V94.0739H523.451C524.921 90.8885 527.153 88.3293 530.148 86.3963C533.143 84.4361 537.009 83.456 541.746 83.456C545.993 83.456 549.71 84.3272 552.895 86.0696C556.08 87.7848 558.558 90.3984 560.328 93.9105C562.097 97.3954 562.982 101.806 562.982 107.142V147H553.344V107.795C553.344 102.868 552.065 99.0289 549.506 96.2791C546.946 93.5021 543.434 92.1136 538.969 92.1136C535.893 92.1136 533.143 92.7807 530.72 94.1147C528.324 95.4487 526.432 97.3954 525.044 99.9545C523.655 102.514 522.961 105.617 522.961 109.266ZM599.052 148.47C595.077 148.47 591.47 147.721 588.23 146.224C584.99 144.699 582.418 142.508 580.512 139.649C578.606 136.763 577.653 133.278 577.653 129.195C577.653 125.601 578.361 122.688 579.777 120.455C581.192 118.196 583.085 116.426 585.453 115.146C587.822 113.867 590.435 112.914 593.294 112.288C596.18 111.634 599.08 111.117 601.993 110.736C605.804 110.246 608.894 109.878 611.263 109.633C613.659 109.361 615.401 108.912 616.49 108.286C617.606 107.659 618.165 106.57 618.165 105.018V104.692C618.165 100.662 617.062 97.5315 614.857 95.299C612.679 93.0665 609.371 91.9503 604.933 91.9503C600.332 91.9503 596.725 92.9576 594.111 94.9723C591.497 96.987 589.66 99.1378 588.598 101.425L579.45 98.1577C581.084 94.3461 583.262 91.3785 585.984 89.255C588.734 87.1042 591.729 85.6068 594.968 84.7628C598.236 83.8916 601.448 83.456 604.606 83.456C606.621 83.456 608.935 83.701 611.549 84.191C614.19 84.6539 616.735 85.6204 619.185 87.0905C621.663 88.5607 623.718 90.7796 625.352 93.7472C626.986 96.7147 627.802 100.69 627.802 105.672V147H618.165V138.506H617.674C617.021 139.867 615.932 141.324 614.407 142.875C612.883 144.427 610.854 145.748 608.323 146.837C605.791 147.926 602.7 148.47 599.052 148.47ZM600.522 139.812C604.334 139.812 607.547 139.064 610.16 137.566C612.801 136.069 614.789 134.136 616.123 131.767C617.484 129.399 618.165 126.908 618.165 124.294V115.473C617.756 115.963 616.858 116.412 615.469 116.821C614.108 117.202 612.529 117.542 610.732 117.842C608.962 118.114 607.234 118.359 605.546 118.577C603.885 118.767 602.537 118.931 601.503 119.067C598.998 119.393 596.656 119.924 594.478 120.659C592.328 121.367 590.585 122.443 589.251 123.886C587.944 125.301 587.291 127.234 587.291 129.685C587.291 133.033 588.53 135.565 591.007 137.281C593.512 138.969 596.684 139.812 600.522 139.812Z" fill="white"/>
</svg>
