<svg width="257" height="59" viewBox="0 0 257 59" fill="none" xmlns="http://www.w3.org/2000/svg">
<path d="M53.123 1.56757C53.685 1.2574 54.2511 0.951476 54.8216 0.641304C55.5155 1.6143 56.2731 2.54058 56.9116 3.55181C57.3033 4.97946 56.8223 6.49208 57.0734 7.94096C59.7382 11.8755 61.5431 16.2986 64.0589 20.3265C65.3232 17.5053 66.4598 14.616 67.89 11.8755C69.2693 10.2439 70.2484 8.17464 72.1427 7.06143C72.8322 6.5643 73.5431 6.09692 74.2966 5.68902C74.4882 6.42409 74.667 7.16765 74.8203 7.91547H75.812C74.2753 11.4081 72.8153 14.9432 70.9125 18.2531C70.1589 19.7105 67.5921 26.3558 67.49 27.3841C67.4644 27.503 67.4558 27.5922 67.4558 27.7155C67.4558 28.0596 67.6006 28.3698 67.8305 28.5908C68.4435 32.2321 69.2012 35.8606 69.6014 39.536C69.8397 41.2865 69.8397 43.0965 70.4952 44.7664C71.4871 40.9041 72.015 36.9399 72.9217 33.0521C73.8284 28.884 74.8543 24.7455 75.7439 20.573C76.4038 17.5351 76.7102 14.4163 77.7191 11.4633C78.0469 10.843 78.5663 10.3543 79.0346 9.83598C80.8778 11.8967 81.8738 14.5226 82.8912 17.0506C85.5474 24.1209 87.3737 31.4588 89.1615 38.7797C89.4127 40.0756 89.5574 41.3927 89.8767 42.6802C90.1661 44.044 90.6898 45.4972 90.0895 46.8611C89.5532 48.0678 89.8298 49.3849 90.0087 50.6384C89.7234 49.8183 89.4595 48.9899 89.1615 48.1825C88.557 49.1556 88.1867 50.2348 87.9909 51.3564C86.4541 50.4174 84.0874 50.2559 83.4445 48.3184C82.6188 45.9093 82.3761 43.3558 81.9717 40.8574C80.75 41.0571 79.5369 41.2823 78.3193 41.4947C77.9618 43.224 78.0596 45.0936 77.3276 46.7167C76.0802 48.2251 74.7053 49.7461 74.6244 51.8238C73.9902 51.5774 73.3516 51.3437 72.7045 51.1483C72.5215 50.7191 72.3555 50.2899 72.1895 49.8609C71.5723 49.9671 70.9465 50.0606 70.3336 50.154C70.3336 49.0323 70.3676 47.9148 70.4186 46.8016C69.3034 48.3057 67.9029 49.8694 68.2307 51.9004C66.9706 51.1227 65.6893 50.3452 64.2547 49.9458C63.5907 48.5692 63.3906 47.0438 63.446 45.5312C63.531 41.2738 63.0543 37.0334 63.0543 32.7759C62.9904 31.4333 63.1905 30.0098 62.5988 28.7565C61.326 25.7269 59.5978 22.9184 58.3036 19.9017C57.5416 18.1256 56.9245 16.2944 56.2348 14.4886C55.6517 19.4301 55.2727 24.4012 55.4473 29.381C55.3323 34.1483 55.8943 38.9283 57.0309 43.5555C57.265 44.4818 56.8137 45.374 56.7244 46.2876C56.6392 47.337 56.7073 48.3864 56.6988 49.4402C56.3285 48.7178 56.0476 47.9531 55.6474 47.2521C55.3196 48.1782 55.0386 49.1172 54.7492 50.0562C53.5572 49.4742 52.3058 49.0281 51.1053 48.4672C50.5434 46.1176 49.8708 43.7892 49.543 41.3885C49.2749 39.1791 48.0361 37.2883 47.1337 35.3041C45.6055 32.0324 43.9197 28.8287 42.4724 25.5146C42.5831 29.534 43.0598 33.5323 43.111 37.5517C43.2046 41.0953 44.039 44.5582 44.388 48.072C44.0773 49.8141 43.9411 51.5732 43.9282 53.3492C43.5835 52.4271 43.3578 51.467 43.1025 50.5236C42.7108 51.5221 42.3872 52.5504 42.0552 53.5744C40.8208 53.1326 39.5906 52.6652 38.4369 52.0448C37.7941 51.1738 37.8197 50.018 37.6026 48.9983C36.3043 48.2548 34.4313 47.9828 33.8779 46.4065C32.6221 43.4704 31.6472 40.4282 30.6724 37.3945C28.7143 38.3123 27.0882 39.7569 25.2621 40.8787C25.2109 44.4392 25.8494 48.0168 25.2152 51.5647C24.2744 51.9386 23.3464 52.3507 22.4141 52.7374C21.269 49.0026 21.9374 45.0809 22.0012 41.261C22.5078 33.6385 22.3971 25.9904 22.6611 18.3593C22.7079 15.2704 22.7036 12.1431 23.3975 9.11791C23.6869 8.34036 24.4235 7.83048 24.9343 7.1974C25.9516 8.87997 26.5816 10.7452 27.3989 12.5213C29.2465 16.477 31.0258 20.4753 32.4306 24.6138C33.0052 26.2368 33.4223 27.9406 34.3419 29.4193C34.6824 30.0056 35.1039 30.5707 35.2657 31.2378C35.4571 33.7489 36.3936 36.1198 37.2535 38.4652C37.3599 37.284 37.4025 36.0943 37.3259 34.9089C36.8619 27.6984 36.4788 20.4753 36.6916 13.2522C36.9811 12.0072 38.1901 11.2084 39.0457 10.3204C40.842 11.5356 41.7573 13.5538 42.8513 15.3468C44.8137 18.6611 46.3716 22.1876 48.2192 25.5612C47.9809 20.743 48.1085 15.9161 48.3214 11.1022C48.3895 9.88696 48.0744 8.68876 48.1638 7.47783C48.7129 6.25839 49.8495 5.47659 51.1223 5.16217C50.8329 3.96397 51.2756 2.86349 52.2675 2.12842C52.7996 2.95272 53.0209 3.90448 52.9699 4.88174C53.221 4.63954 53.4807 4.39736 53.7446 4.16367C53.5317 3.29688 53.3062 2.43435 53.1188 1.56757H53.123ZM25.6026 19.0774C25.7686 24.9112 25.9516 30.762 25.5089 36.5872C26.6624 35.287 27.9523 34.1185 29.3358 33.0649C28.8036 30.4475 27.9523 27.9108 27.3436 25.3106C26.8157 23.2201 26.3731 21.0956 25.6026 19.0774ZM78.762 39.0218C79.6602 38.7117 80.5627 38.3972 81.4651 38.0955C81.0523 35.5633 80.6564 33.0181 80.0178 30.5283C79.3793 33.3155 78.9621 36.1666 78.762 39.0218Z" fill="white"/>
<path d="M18.0135 4.84784C19.2311 4.53342 19.7971 5.56591 20.1207 6.5644C19.4779 15.1983 17.7965 23.7131 17.0089 32.3384C16.4512 37.7431 16.0938 43.1774 15.2125 48.5438C15.0551 49.8695 14.1526 50.8722 13.3991 51.9047C12.5691 51.501 11.2239 51.5902 10.9429 50.5366C9.60629 46.5128 8.5591 42.3956 7.97592 38.1976C5.77513 30.8385 4.09368 23.3434 2.35262 15.8696C1.98653 14.1615 1.35652 12.5044 1.17773 10.7623C1.62045 9.83607 3.02521 8.145 3.83826 9.64912C6.90745 14.6501 7.85672 20.5476 9.55521 26.0754C10.3427 28.5058 11.0111 30.983 11.9561 33.3581C12.203 27.4436 12.7436 21.5462 13.5992 15.6868C13.91 13.6644 14.0334 11.6249 14.0803 9.58114C14.8465 8.62938 15.8596 7.86457 16.3108 6.68762C16.4726 5.9483 17.2729 6.27973 17.8092 6.23299C17.8689 5.76985 17.937 5.30672 18.0135 4.84784Z" fill="white"/>
<path d="M198.085 6.42837C198.608 5.83352 199.264 5.37038 199.898 4.89025C200.878 7.06145 199.422 9.13493 198.498 11.03C197.318 13.5283 195.897 15.9034 194.765 18.4231C196.539 21.4823 199.447 23.6153 201.443 26.5002C200.592 28.2976 199.506 29.9887 198.842 31.8751C198.141 33.7957 196.697 35.3296 195.867 37.1821C195.684 37.3904 195.573 37.658 195.569 37.9511V37.9724V37.9682V37.9766V38.1084C195.569 38.6097 195.875 39.0389 196.315 39.2215C198.395 42.2935 200.171 45.6629 203.04 48.1018C203.955 48.9006 204.734 49.8481 205.402 50.8636C204.675 52.4995 203.554 53.9738 202.346 55.2783C200.716 56.026 198.792 56.145 197.033 55.9326C192.738 52.1214 190.384 46.7252 188.358 41.482C188.234 41.0104 187.898 40.4495 188.247 39.9992C190.359 36.5447 193.092 33.5025 195.058 29.9547C193.355 28.3018 191.721 26.5682 190.414 24.584C189.631 23.3689 188.669 22.2811 187.55 21.3676C190.852 16.2433 194.39 11.2764 198.089 6.42837H198.085Z" fill="white"/>
<path d="M101.206 7.04029C101.598 6.6239 102.053 6.03755 102.704 6.28823C104.377 8.34046 103.309 11.5951 105.48 13.3245C109.839 17.4246 112.47 22.9101 114.653 28.387C115.922 31.9432 117.208 35.7843 116.407 39.5955C116.075 41.8687 114.419 43.6065 113.657 45.7226C112.644 48.4885 110.639 50.7065 109.183 53.2303C108.413 53.1072 107.642 52.9966 106.872 52.9033C106.706 53.566 106.548 54.2417 106.404 54.9172C105.267 54.3436 103.973 54.0291 102.998 53.1963C102.274 51.4543 102.343 49.4999 102.126 47.6515C100.874 35.1257 99.448 22.5701 99.78 9.9593C99.7204 8.79509 100.504 7.87309 101.206 7.04029ZM106.459 26.0883C106.991 32.7038 107.791 39.3023 107.97 45.9434C109.732 44.0612 110.133 41.3673 110.056 38.8902C110.013 34.3779 108.136 30.1884 106.459 26.0883Z" fill="white"/>
<path d="M167.167 7.04006C167.732 6.99757 168.154 7.42671 168.614 7.68589C168.027 8.70989 167.477 9.75937 167.073 10.8683C164.012 11.3272 160.705 11.9008 157.622 12.0538C158.746 17.9599 159.402 23.955 159.431 29.9673C160.024 35.0405 159.722 40.1562 159.998 45.2507C159.963 46.8355 160.304 48.6966 159.1 49.967C158.185 50.9484 157.797 52.2444 157.537 53.5275C156.435 52.8604 155.294 52.2528 154.055 51.9045C153.302 46.0324 153.769 40.0967 153.51 34.1992C153.238 26.874 153.629 19.5489 154.388 12.2662C152.144 12.3342 149.862 12.4107 147.725 13.1628C146.845 13.5749 146.057 12.8016 145.295 12.4829C146.368 10.8981 148.189 9.15177 150.075 8.73963C155.669 7.43096 161.432 7.02306 167.167 7.04006Z" fill="white"/>
<path d="M220.998 11.9307C222.437 10.9195 221.812 8.70156 223.395 7.84753C223.608 8.58684 223.799 9.33889 223.969 10.0995C224.153 10.0995 224.523 10.091 224.705 10.0867C223.56 12.959 222.71 15.9672 222.467 19.0605C221.466 25.9013 220.952 32.8143 220.722 39.7229C220.913 42.6633 220.466 45.5738 220.444 48.5054C220.207 48.2803 219.721 47.8341 219.483 47.6133C219.274 48.0933 219.075 48.5778 218.878 49.0663C217.554 48.616 216.027 48.2421 215.328 46.8951C211.884 41.635 210.718 35.3254 208.708 29.4575C208.645 33.0267 208.377 36.5915 207.976 40.1351C207.994 41.7412 206.12 42.3488 205.797 43.8147C205.55 44.5795 205.423 45.3783 205.27 46.1685C204.473 45.7395 203.647 45.3698 202.813 45.0511C203.094 44.4307 203.392 43.8147 203.702 43.2071C203.098 44.1801 202.332 45.0087 201.076 44.5964C201.101 43.547 201.162 42.5018 201.311 41.4651C202.842 33.2688 202.813 24.8602 204.447 16.6811C204.826 15.3554 205.158 14.0042 205.806 12.7763C208.41 14.8583 210.615 17.4586 211.948 20.5391C213.4 23.9298 214.996 27.2821 215.911 30.8724C216.341 27.877 216.312 24.8432 216.776 21.8563C217.091 18.9499 218.04 16.1457 218.142 13.2139C218.64 12.4619 219.551 12.1262 220.172 11.4846C220.415 10.8175 220.577 10.125 220.785 9.44938C220.989 9.58109 221.394 9.84452 221.598 9.97623C221.381 10.6221 221.173 11.2722 220.998 11.9307Z" fill="white"/>
<path d="M136.692 13.9617C137.33 12.1517 138.633 10.5923 140.263 9.58105C142.826 14.3738 143.342 19.9526 143.784 25.2893C144.023 30.9446 144.027 36.6127 144.201 42.2766C143.946 46.1345 144.325 50.0351 143.639 53.8676C141.941 54.5772 141.532 56.3703 141.196 58.0017C140.502 57.7469 139.808 57.509 139.105 57.2964C139.046 56.931 138.991 56.57 138.943 56.213C138.455 56.4127 137.956 56.604 137.463 56.7908C137.241 49.4147 137.612 42.0174 137.399 34.6327C137.113 30.9361 137.356 27.2099 136.883 23.526C136.024 25.4848 135.512 27.5625 134.947 29.6148C134.001 33.3835 132.681 37.1014 132.465 41.0104C132.422 43.1688 131.877 45.289 132.107 47.456C131.831 46.6401 131.579 45.8159 131.303 45.0085C130.941 45.9264 130.634 46.8654 130.375 47.8214C129.315 47.3625 128.016 47.2095 127.203 46.3427C125.654 40.3305 124.398 34.2418 123.079 28.1743C122.529 34.9769 121.895 41.7752 121.018 48.5479C120.652 51.7474 120.499 54.9808 119.877 58.1505C119.784 57.5217 119.694 56.897 119.601 56.2768C119.09 56.9056 118.681 57.6109 118.366 58.3587C117.328 57.9975 116.306 57.5854 115.323 57.101C115.186 50.596 116.497 44.1886 117.425 37.7769C118.387 30.8555 119.252 23.9127 120.576 17.0506C120.946 15.3681 120.856 13.643 120.916 11.9392C121.354 11.8585 121.793 11.7777 122.236 11.697C122.576 13.0014 123.138 14.2294 123.798 15.4021C125.662 18.8055 126.816 22.5361 127.884 26.2496C128.591 28.7267 129.493 31.1614 129.791 33.7362C131.707 27.0144 134.483 20.5857 136.692 13.9617Z" fill="white"/>
<path d="M248.498 13.0142C249.473 12.3005 250.477 11.6206 251.418 10.8558C254.109 16.7448 255.27 23.25 255.666 29.6828C256.288 34.3481 254.998 39.0559 252.712 43.1136C251.622 44.9025 251.171 47.0142 249.886 48.6968C249.167 48.4121 248.443 48.1528 247.724 47.8938C247.983 47.3116 248.259 46.7338 248.519 46.1474C247.906 46.959 247.306 47.779 246.693 48.5905C244.909 47.8554 242.955 47.1672 241.734 45.5866C238.95 41.8645 238.103 37.0334 238.644 32.4871C238.95 27.3332 241.074 22.4681 243.952 18.2405C245.34 16.4007 246.616 14.4037 248.498 13.0142ZM247.118 21.3592C246.592 22.7655 247.208 24.3036 246.684 25.7186C244.909 31.2422 246.246 37.1949 248.302 42.4467C249.609 39.7273 250.792 36.8721 251.044 33.8341C251.618 27.1122 250.993 20.3522 250.345 13.6602C248.869 16.0395 248.046 18.7376 247.118 21.3592Z" fill="white"/>
<path d="M226.826 12.5596C226.787 11.8925 227.289 11.4252 227.647 10.9238C229.235 15.2705 229.175 19.9655 229.588 24.516C231.495 21.7883 233.181 18.916 235.062 16.1669C236.246 14.5226 236.458 12.2324 238.28 11.0767C238.843 13.2522 237.982 15.4022 237.22 17.4077C236.259 19.7955 235.475 22.2684 234.155 24.4949C233.419 25.914 232.381 27.2057 231.912 28.748C232.287 30.558 233.218 32.2067 233.798 33.9614C235.905 39.2344 236.876 44.9831 239.822 49.9035C239.493 50.4813 239.14 51.0464 238.885 51.6625C238.893 52.406 239.281 53.0774 239.493 53.7785C239.072 53.3196 238.663 52.8564 238.247 52.406C238.089 53.0774 237.958 53.7614 237.816 54.4412C236.804 53.9485 235.663 53.6637 234.777 52.9542C233.798 51.9599 233.415 50.5748 232.909 49.3171C231.534 45.7224 230.639 41.9622 229.205 38.3889C228.966 41.6817 228.801 44.9831 228.975 48.2846C228.784 49.6867 228.596 51.0889 228.771 52.5079C228.481 51.8324 228.201 51.1611 227.911 50.4982C227.604 51.2801 227.341 52.0789 227.098 52.8862C226.084 52.3338 225.059 51.8155 224.008 51.3481C223.722 48.8582 224.131 46.3726 224.468 43.9124C226.102 33.5365 226.447 23.0417 226.826 12.5596Z" fill="white"/>
<path d="M164.975 15.9714C164.52 15.1131 162.987 13.4348 164.689 13.0439C168.444 12.7252 172.177 14.599 174.621 17.3905C176.405 19.498 178.38 21.9071 178.159 24.8475C178.341 27.5114 176.511 29.602 175.608 31.9516C174.677 34.0973 173.365 36.0391 171.999 37.9256C174.795 40.6406 177.384 43.5555 180.116 46.3342C181.756 47.953 183.458 49.5166 185.054 51.1822C185.463 51.6921 186 52.1765 186.153 52.8394C185.851 53.5744 185.319 54.2118 185.126 54.9935C185.139 55.6266 185.625 56.128 185.88 56.6889C185.446 56.2299 185.016 55.771 184.581 55.3249C184.386 55.9453 184.203 56.5698 184.036 57.2029C183.07 56.7866 182.054 56.4679 181.172 55.8943C177.154 52.4696 173.433 48.6754 170.266 44.4392C170.59 45.9561 170.964 47.5027 170.845 49.062C170.112 50.5407 168.763 51.7516 168.805 53.5276C167.66 52.9158 166.473 52.4016 165.306 51.8536C164.307 45.2507 163.881 38.58 163.48 31.9261C163.2 27.5837 163.081 23.1988 163.749 18.8904C163.856 17.8112 164.413 16.8722 164.975 15.9714ZM167.04 18.2361C168.227 23.6493 168.746 29.1728 169.666 34.6284C171.279 32.1173 173.259 29.1261 172.31 26.0159C171.301 23.0162 169.42 20.3181 167.04 18.2361Z" fill="white"/>
<path d="M181.741 15.5891C181.925 14.4249 182.98 13.7451 183.738 12.9547C185.028 16.7406 185.658 20.7516 185.666 24.7455C185.883 31.4886 186.471 38.2869 185.568 45.0002C185.33 44.7877 184.854 44.3586 184.615 44.1461C184.364 45.0511 184.099 45.9519 183.845 46.8569C182.883 46.3641 181.878 45.969 180.915 45.4889C180.519 44.6135 180.613 43.6278 180.563 42.6973C180.516 33.6513 180.495 24.5629 181.741 15.5891Z" fill="white"/>
<path d="M146.385 18.967C146.432 17.7772 147.603 17.1781 148.394 16.4814C148.807 17.3396 149.245 18.2021 149.467 19.1369C150.876 25.3275 150.991 31.701 151.196 38.0149C151.196 39.6549 151.897 41.3418 151.238 42.9352C150.811 44.1588 151.2 45.4548 151.178 46.7125C150.71 45.8031 150.502 44.7961 150.255 43.8189C149.735 44.9661 149.331 46.1601 149.156 47.4136C148.385 47.1077 147.611 46.8187 146.841 46.5468C147.185 46.0072 147.551 45.4845 147.925 44.9619C147.266 45.3995 146.611 45.8499 145.882 46.1601C144.811 45.8286 145.133 44.4351 144.958 43.5768C144.822 35.3509 145.486 27.1333 146.385 18.967Z" fill="white"/>
</svg>
