<svg width="329" height="173" viewBox="0 0 329 173" fill="none" xmlns="http://www.w3.org/2000/svg">
<g clip-path="url(#clip0_3_80)">
<path d="M114.555 5.35124C128.589 -0.0433801 143.831 -0.471233 158.664 0.291455C172.511 1.63081 185.876 6.78361 197.493 14.3919C199.11 15.3592 200.671 16.5497 202.549 17.052C207.586 15.9173 212.289 13.7036 217.27 12.3084C231.843 7.86253 246.973 5.7977 262.085 3.99329C275.84 2.48651 289.669 1.12856 303.535 1.44479C311.305 1.70522 319.613 2.56092 326.007 7.50909C313.461 4.75598 300.635 6.59759 287.996 7.30447C265.486 9.42512 242.921 11.4341 220.746 15.9173C215.356 17.1264 209.519 17.5543 204.798 20.6981C212.66 22.149 220.579 20.047 228.478 20.8097C242.382 20.5678 255.932 15.5452 269.91 16.5311C274.557 16.3451 276.62 22.6885 273.609 25.8509C268.944 32.0454 264.668 38.5375 260.096 44.825C254.166 53.0286 245.728 58.8697 238.962 66.3291C234.278 69.1939 228.925 70.7936 224.24 73.7328C198.943 87.2379 170.597 92.9488 143.069 100.036C117.789 106.101 92.436 111.867 67.0082 117.187C64.2015 117.634 62.9003 122.359 59.8706 121.001C52.5285 117.82 44.6845 122.266 37.138 120.461C34.2941 119.717 30.2977 118.88 29.7401 115.457C34.6658 105.896 44.2384 99.999 50.9299 91.8327C52.9188 87.0519 53.4393 81.7875 54.4058 76.7463C48.5879 79.9273 43.8109 84.5778 38.6807 88.7075C31.3386 94.6974 24.517 101.301 18.1973 108.351C15.7995 111.216 13.0671 114.174 12.5095 118.006C11.2269 125.335 9.18228 132.516 8.12279 139.901C28.1788 133.855 48.9783 131.065 69.6476 127.865C109.499 121.764 149.017 113.486 188.125 103.664C198.701 101.171 208.869 97.2645 219.463 94.809C227.177 92.0931 235.058 89.526 241.843 84.8197C261.676 72.1702 280.951 58.572 299.576 44.1926C310.245 36.1564 319.279 25.8323 324.818 13.6106C325.989 10.6901 326.584 7.5463 328.312 4.88619C329.297 10.2436 327.048 15.3964 324.892 20.1772C320.189 30.0177 314.093 39.3188 306.044 46.7597C290.895 60.8415 273.962 72.8771 256.49 83.8896C247.382 88.3355 239.222 94.437 230.151 98.9573C228.274 109.728 222.549 119.234 216.805 128.33C211.043 136.664 204.724 144.719 197.493 151.806C185.318 162.335 170.076 169.218 154.165 171.599C138.57 172.975 122.474 172.138 107.752 166.39C98.9602 163.265 91.3951 157.666 83.198 153.331C76.618 149.648 71.5993 143.882 66.6364 138.301C50.2422 140.459 33.9223 143.305 17.7511 146.802C11.9518 148.011 5.3904 150.653 0 146.802C1.00373 141.073 2.91825 135.566 5.22311 130.246C7.54655 125.707 4.42384 120.201 7.67667 115.904C16.3943 101.413 29.0152 89.4144 43.2533 80.411C47.231 77.7695 51.7106 76.0023 55.6698 73.3049C58.1977 67.8173 59.3687 61.8088 62.0453 56.3584C72.5659 33.794 90.7817 13.8524 114.63 5.35124H114.555ZM121.953 6.29995C106.005 12.2154 91.2836 22.056 80.447 35.2635C84.4619 34.4078 88.4397 32.7709 92.6033 33.1057C98.5327 34.0544 103.031 39.5234 109.276 39.263C115.262 38.2957 120.671 35.2821 125.838 32.2872C132.975 28.1947 136.042 20.0656 141.786 14.5407C145.522 10.6529 150.411 8.23458 155.02 5.55587C144.109 3.73286 132.622 3.15619 121.916 6.31856L121.953 6.29995ZM148.273 13.2758C138.924 18.4658 135.949 30.3526 126.098 34.9101C119.611 37.8492 113.068 42.1835 105.633 41.5325C100.131 41.086 95.7632 36.3983 90.094 36.8447C82.3615 37.1982 74.6291 41.6255 71.1718 48.6943C66.8409 56.935 64.6476 66.0873 62.8074 75.1466C70.2424 68.4498 79.7407 63.5388 90.001 64.0783C98.5327 63.7062 105.968 68.3382 113.793 70.9611C125.633 74.4397 137.957 69.6589 147.938 63.3156C156.861 57.6233 161.582 47.6526 169.463 40.8256C176.991 34.2962 185.634 29.2922 194.426 24.6975C188.274 19.5819 181.508 15.0802 174.073 12.0852C165.708 9.92737 155.968 7.95555 148.31 13.2572L148.273 13.2758ZM226.434 28.3621C222.865 28.5296 222.252 32.4174 220.783 34.9473C226.564 41.3278 232.326 47.7642 237.326 54.7958C238.72 56.4514 240.653 60.0974 243.088 57.6233C254.259 49.6244 262.457 38.1097 269.092 26.2229C255.059 22.3722 240.374 25.8136 226.434 28.3807V28.3621ZM172.474 43.9135C166.396 48.8989 163.125 56.191 158.478 62.3297C146.767 79.0158 122.975 85.1545 104.239 77.9555C90.6888 73.1189 74.9637 73.1189 61.9895 79.7041C60.5025 89.805 59.4616 100.278 61.8966 110.323C67.2684 110.026 72.3986 108.277 77.5659 106.882C107.362 98.8829 137.548 92.5024 167.641 85.8242C189.11 80.8574 211.192 76.2069 230.579 65.306C228.218 61.6972 225.727 58.2 223.014 54.8516C215.449 45.6435 208.125 36.0262 198.552 28.7528C188.98 32.0268 180.262 37.4772 172.511 43.9135H172.474ZM35.1491 113.82C40.5023 114.49 45.9857 114.49 51.2645 113.151C50.298 107.458 50.298 101.673 50.7255 95.9437C45.3165 101.673 38.7365 106.677 35.1491 113.82ZM199.24 106.045C193.645 106.956 187.976 107.738 182.623 109.728C166.675 115.346 150.392 120.015 134.128 124.628C114.76 130.079 94.9081 133.353 75.1681 137.036C78.0864 141.352 81.5809 145.425 86.5437 147.397C92.9007 150.057 99.4249 155.061 106.637 152.959C115.057 151.062 123.868 150.522 131.823 147.007C136.358 145.444 136.916 140.087 139.667 136.757C145.987 128.665 156.433 125.019 166.377 124.219C180.894 122.954 195.578 121.689 209.519 117.206C213.348 115.792 217.419 114.248 220.188 111.086C222.214 108.035 222.958 104.389 223.999 100.948C215.746 102.622 207.586 104.761 199.24 106.045ZM172.827 129.762C163.998 128.944 154.407 129.465 147.065 135.027C140.578 138.766 140.355 147.788 133.868 151.508C128.31 155.192 121.488 155.396 115.447 157.721C133.236 161.591 152.362 162.632 169.779 156.457C187.511 150.597 202.474 137.892 213.274 122.88C200.262 127.214 186.694 131.158 172.827 129.762Z" fill="#157AFF"/>
</g>
<defs>
<clipPath id="clip0_3_80">
<rect width="329" height="173" fill="white"/>
</clipPath>
</defs>
</svg>
