<svg width="232" height="183" viewBox="0 0 232 183" fill="none" xmlns="http://www.w3.org/2000/svg">
<g clip-path="url(#clip0_3_82)">
<path d="M138.371 0.577025C140.13 -0.55877 142.241 0.278892 144.113 0.591237C156.215 3.06159 167.628 7.95971 179.394 11.5943C182.673 12.801 186.487 13.2412 189.133 15.7115C189.906 26.885 189.963 38.1718 191.356 49.3026C201.362 52.1279 210.849 56.7847 219.32 62.8328C208.61 58.673 198.337 53.4484 187.388 49.9274C187.318 39.4923 186.754 29.0713 186.164 18.6504C177.453 18.409 168.782 19.6584 160.057 19.4171C152.809 19.5306 145.59 18.5793 138.343 18.6787C138.919 32.1095 140.285 45.5546 139.44 59.0137C138.638 59.0564 137.02 59.1557 136.218 59.1982C136.457 45.7107 136.611 32.2089 136.935 18.7214C129.434 17.4862 121.75 17.2448 114.193 17.9121C109.141 20.4818 104.862 24.3151 99.9647 27.1262C92.9563 31.7546 85.5819 35.7584 78.5734 40.3725C79.7837 45.7249 80.4734 51.2051 80.5155 56.7137C86.3278 56.4156 92.4074 58.0341 98.0086 55.9755C99.81 56.8557 101.738 57.4803 103.779 57.4803C116.304 58.0624 128.801 58.9853 141.298 59.9224C160.367 60.9019 179.465 61.4983 198.506 63.0884C205.106 63.6421 211.734 63.9971 218.348 64.4656C199.632 65.4452 180.928 63.3581 162.21 63.1167C159.988 66.581 156.764 69.9031 156.779 74.3044C155.977 86.0882 156.934 97.8722 157.384 109.642C164.828 109.684 172.273 109.755 179.704 109.642C179.394 108.747 179.098 107.867 178.789 106.987C180.267 108.123 181.589 109.869 183.644 109.741C188.345 110.053 193.003 109.131 197.703 108.875C201.082 103.494 204.205 97.9573 206.879 92.1789C211.031 83.7599 213.986 74.7302 219.151 66.8507C220.038 65.3458 221.516 64.3661 222.966 63.4717C222.486 69.4488 219.939 74.929 217.674 80.3809C212.973 90.8302 208.4 101.379 202.657 111.303C207.611 115.846 208.891 122.774 212.706 128.113C219.659 138.264 226.004 148.813 232 159.559C227.933 164.714 222.164 168.036 217.701 172.82C215.816 174.509 214.295 176.81 211.96 177.861C208.539 178.499 205.035 178.259 201.616 177.903C191.412 176.483 181.506 173.36 172.161 169.001C168.755 167.71 164.744 165.309 161.254 167.623C153.317 171.911 145.928 177.165 138.455 182.204C135.922 183.171 133.107 182.9 130.461 183C114.756 182.602 99.1626 180.402 83.7102 177.634C81.1911 170.917 78.0387 164.345 73.2679 158.935C71.8465 154.62 69.1022 150.204 69.5102 145.618C69.7918 145.59 70.3688 145.533 70.6502 145.505C72.3249 149.168 72.7049 153.796 75.7447 156.636C88.3685 157.814 101.034 155.769 113.672 155.585C113.419 151.382 113.362 147.137 113.954 142.963C115.347 132.628 115.811 122.136 118.485 112.013C109.309 111.999 100.134 112.396 90.9721 111.871C85.9057 111.346 80.8675 110.636 75.815 110.11C78.7002 117.791 78.3905 126.04 78.855 134.104C75.1255 139.598 69.5806 143.418 65.3165 148.429C63.9372 147.748 62.544 147.08 61.1649 146.427C64.3172 141.103 69.6792 137.937 74.3515 134.189C75.1959 126.792 74.7173 118.913 71.9027 111.899C66.189 111.047 60.2781 111.161 54.7192 112.865C52.2705 113.674 49.7232 113.049 47.2323 113.049C32.3569 113.702 17.1718 113.149 2.789 109.031C-0.152303 89.879 -0.799672 70.3575 1.0017 51.0632C0.917264 49.5298 2.11349 48.394 3.56304 48.2237C20.4791 46.1508 37.2404 42.9565 54.0016 39.8046C60.6019 38.5552 67.9201 39.4922 73.7886 35.6163C88.7344 26.6719 103.666 17.6707 119.147 9.6776C125.339 6.18502 132.08 3.88501 138.314 0.520224L138.371 0.577025ZM137.653 2.36592C131.025 6.00046 124.776 10.3165 118.584 14.6467C131.447 14.0362 144.267 15.4559 157.088 16.1232C166.588 16.464 176.086 17.2448 185.6 17.1739C180.971 14.8739 175.876 13.8091 171.034 12.077C161.971 9.06711 153.429 4.5239 144.084 2.38009C141.973 1.95417 139.623 1.00296 137.653 2.36592ZM45.9516 43.141C32.3851 46.0514 18.6355 47.812 4.94221 50.0552C4.82962 53.1928 4.77333 56.3446 4.75926 59.4823C27.3469 58.3465 49.9344 56.8841 72.55 56.6143C72.8738 52.1706 73.3241 47.7409 74.0277 43.3397C71.8886 42.3885 69.8058 41.1249 67.4274 41.0114C60.2078 40.4577 52.9883 41.6219 45.9375 43.141H45.9516ZM54.7333 61.8815C54.9726 77.2006 56.9148 92.4912 56.0985 107.839C60.9256 107.484 65.7808 107.455 70.594 106.816C78.5594 105.61 86.4967 107.711 94.4903 107.541C95.2644 99.9734 94.1806 92.3919 94.2229 84.8247C94.1667 76.9734 95.0533 69.1649 95.9117 61.3705C91.6897 61.4556 87.4537 61.2569 83.2317 61.4841C80.1919 61.8957 77.2505 62.8895 74.2389 63.4292C72.7331 62.5772 71.2413 61.3989 69.4258 61.4841C64.5283 61.3136 59.6449 61.697 54.7475 61.8957L54.7333 61.8815ZM36.9026 63.2587C26.2351 63.2303 15.5816 63.6705 4.91406 63.9544C4.46373 77.8254 5.39256 91.7388 7.37689 105.468C21.2953 108.889 35.819 109.443 50.0611 108.435C51.0039 92.9882 50.3987 77.4704 52.0876 62.0662C47.0071 62.0662 41.9407 62.5772 36.9026 63.2447V63.2587ZM99.1063 61.4699C98.7826 68.5828 98.5997 75.6958 98.8529 82.8087C98.9515 91.1567 100.204 99.519 99.2329 107.853C106.678 108.066 114.137 108.392 121.595 108.123C131.517 109.131 141.481 109.074 151.445 109.486C151.374 103.267 151.248 97.0202 151.754 90.8159C152.204 83.7599 153.528 76.8174 153.808 69.7613C153.866 67.0495 155.61 64.8631 157.088 62.7477C149.207 62.8044 141.34 62.3501 133.459 62.3785C121.989 62.5205 110.576 61.186 99.1063 61.4699ZM182.617 110.834C185.445 121.241 187.599 131.847 188.584 142.594C188.963 146.612 189.653 150.587 190.639 154.506C194.762 154.633 198.913 154.407 203.038 154.86C199.731 155.712 196.267 155.4 192.918 155.911C191.371 156.479 189.991 157.43 188.429 157.956C186.008 158.864 184.137 156.152 181.759 156.181C166.376 156.465 151.008 157.743 135.612 157.856C136.513 165.58 138.117 173.247 138.061 181.069C147.04 174.283 155.793 166.872 166.109 162.2C170.077 162.342 173.638 164.472 177.256 165.934C185.558 169.768 194.311 172.551 203.276 174.354C206.092 174.822 208.99 175.362 211.848 174.95C215.619 171.429 218.884 167.397 222.796 164.047C225.119 162.342 225.569 159.375 226.314 156.777C222.809 157.885 219.531 159.674 215.957 160.526C218.236 157.983 221.178 156.209 224.077 154.506C222.148 150.843 220.517 147.024 218.771 143.276C217.069 142.75 215.084 142.395 214.183 140.663C210.708 135.552 206.471 130.91 203.939 125.202C202.601 122.533 201.855 119.523 199.942 117.181C196.113 111.7 188.71 111.033 182.617 110.82V110.834ZM162 112.212C158.623 112.141 156.06 114.653 153.12 115.931C151.924 114.682 151.163 112.581 149.165 112.637C140.524 112.112 131.841 112.496 123.186 112.084C120.455 126.338 119.189 140.919 119.358 155.443C140.791 155.287 162.239 154.605 183.686 154.435C183.742 139.925 181.35 125.614 179.929 111.218C173.962 111.658 167.98 112.041 162 112.197V112.212ZM108.845 158.879C98.5997 159.461 88.3544 160.299 78.0809 160.241C81.6132 164.5 84.3857 169.328 86.2716 174.553C100.978 176.923 116.065 175.547 130.715 178.485C132.319 171.77 130.532 164.827 131.798 158.055C124.157 158.594 116.501 158.864 108.845 158.892V158.879Z" fill="#157AFF"/>
</g>
<defs>
<clipPath id="clip0_3_82">
<rect width="232" height="183" fill="white"/>
</clipPath>
</defs>
</svg>
