<?xml version="1.0" encoding="iso-8859-1"?>
<!-- Uploaded to: SVG Repo, www.svgrepo.com, Generator: SVG Repo Mixer Tools -->
<svg height="800px" width="800px" version="1.1" id="Layer_1" xmlns="http://www.w3.org/2000/svg" xmlns:xlink="http://www.w3.org/1999/xlink" 
	 viewBox="0 0 511.997 511.997" xml:space="preserve">
<path style="fill:#62A2FB;" d="M433.28,293.791c16.307,15.92,33.517,30.899,48.142,48.424c6.461,7.788,12.577,15.825,17.256,24.863
	c6.63,12.848,0.625,26.987-10.895,27.754l-71.614-0.033c-18.471,1.533-33.205-5.903-45.594-18.532
	c-9.915-10.1-19.097-20.848-28.631-31.288c-3.908-4.267-8-8.282-12.887-11.456c-9.776-6.346-18.262-4.403-23.849,5.794
	c-5.69,10.371-6.981,21.854-7.539,33.412c-0.767,16.864-5.864,21.297-22.804,22.069c-36.201,1.707-70.558-3.769-102.475-22.032
	c-28.138-16.1-49.958-38.828-68.951-64.558C66.46,258.107,38.142,203.052,12.692,146.454c-5.729-12.751-1.539-19.596,12.53-19.839
	c23.363-0.454,46.722-0.421,70.112-0.033c9.495,0.139,15.781,5.585,19.448,14.556c12.64,31.08,28.107,60.65,47.52,88.058
	c5.17,7.297,10.441,14.594,17.949,19.73c8.305,5.687,14.628,3.802,18.535-5.449c2.479-5.866,3.564-12.184,4.123-18.467
	c1.851-21.615,2.095-43.194-1.151-64.732c-1.993-13.443-9.564-22.144-22.979-24.689c-6.845-1.297-5.826-3.844-2.512-7.751
	c5.756-6.738,11.171-10.933,21.962-10.933h80.935c12.741,2.515,15.571,8.239,17.315,21.059l0.069,89.903
	c-0.139,4.964,2.479,19.692,11.419,22.977c7.155,2.339,11.871-3.385,16.164-7.922c19.379-20.567,33.208-44.873,45.564-70.042
	c5.483-11.067,10.198-22.56,14.767-34.043c3.385-8.521,8.697-12.715,18.296-12.528l77.896,0.069c2.31,0,4.647,0.034,6.884,0.417
	c13.126,2.237,16.723,7.884,12.669,20.701c-6.387,20.11-18.817,36.868-30.968,53.704c-12.99,17.974-26.884,35.334-39.766,53.416
	C417.638,271.127,418.578,279.451,433.28,293.791L433.28,293.791z"/>
<g>
	<path style="fill:#3765A3;" d="M262.73,405.289c-36.328,0.001-67.642-7.784-95.408-23.669
		c-26.427-15.121-49.334-36.523-72.092-67.354C62.91,270.472,34.584,220.007,3.388,150.638c-4.364-9.714-4.513-17.889-0.444-24.299
		c4.063-6.4,11.498-9.737,22.099-9.92c22.476-0.437,45.531-0.447,70.459-0.032c13.084,0.192,23.29,7.611,28.719,20.894
		c13.183,32.416,28.36,60.549,46.401,86.022c4.517,6.374,9.188,12.968,15.386,17.208l0.03,0.02c1.171,0.8,2.779,0.327,3.333-0.977
		l0.018-0.043c1.721-4.07,2.786-8.964,3.359-15.403c2.055-23.983,1.713-43.792-1.078-62.309
		c-1.413-9.531-5.973-14.516-14.793-16.189c-2.505-0.474-10.132-1.919-12.692-9.158c-2.53-7.154,2.435-13.006,4.305-15.21
		c6.458-7.56,14.512-14.533,29.738-14.533h80.935c0.627,0,1.262,0.054,1.878,0.174c20.386,3.985,23.797,16.863,25.544,29.709
		c0.061,0.453,0.093,0.91,0.093,1.367l0.069,89.903c0,0.098-0.001,0.196-0.004,0.295c-0.052,1.867,0.454,4.527,1.224,6.969
		c1.07,3.389,5.413,4.356,7.843,1.761c0.013-0.014,0.027-0.029,0.041-0.043l0.872-0.928c19.623-20.827,33.163-45.824,43.818-67.527
		c5.57-11.242,10.376-23.093,14.447-33.319c5.086-12.804,14.418-19.181,27.87-18.956l77.806,0.069c2.68,0,5.56,0.043,8.595,0.563
		c6.213,1.059,15.031,3.369,19.787,11.162c4.755,7.792,2.783,16.668,0.885,22.666c-6.645,20.92-19.048,38.086-31.043,54.689
		l-1.38,1.91c-6.148,8.507-12.562,16.966-18.766,25.146c-6.979,9.202-14.195,18.718-20.963,28.218
		c-4.527,6.316-6.495,10.589-6.207,13.469c0.293,2.93,3.098,6.897,8.828,12.486c0.001,0.001,0.002,0.002,0.003,0.003
		c4.26,4.159,8.683,8.348,12.96,12.399c12.169,11.525,24.751,23.442,35.888,36.789c6.135,7.394,13.109,16.329,18.483,26.709
		c5.152,9.986,5.228,21.248,0.207,30.14c-4.169,7.384-11.271,11.931-19.484,12.478c-0.226,0.015-0.452,0.022-0.678,0.022
		c-0.001,0-0.002,0-0.004,0l-71.205-0.033c-19.817,1.523-37.735-5.744-53.278-21.588c-6.872-6.999-13.432-14.338-19.774-21.436
		c-2.98-3.333-6.06-6.78-9.108-10.117c-3.007-3.283-6.664-7.023-10.911-9.781c-2.323-1.508-4.412-2.229-5.59-1.936
		c-1.109,0.279-2.514,1.803-3.76,4.076c-4.455,8.12-5.739,17.466-6.297,29.003c-0.994,21.829-10.114,30.744-32.527,31.765
		C271.065,405.188,266.862,405.289,262.73,405.289z M20.445,137.452c0.099,0.823,0.442,2.36,1.549,4.823
		c30.575,67.99,58.224,117.298,89.65,159.877c21.015,28.472,41.927,48.098,65.809,61.762c27.453,15.707,59.155,22.472,96.931,20.696
		c7.861-0.359,10.217-1.537,10.922-2.207c0.539-0.511,1.827-2.522,2.174-10.139c0.602-12.453,2.082-25.634,8.785-37.854
		c5.175-9.444,11.916-12.853,16.66-14.049c4.793-1.209,12.448-1.389,21.683,4.606c6.169,4.006,10.971,8.881,14.854,13.123
		c3.132,3.429,6.25,6.918,9.264,10.29c6.187,6.922,12.584,14.079,19.124,20.741c11.529,11.75,23.449,16.68,37.474,15.512
		c0.279-0.023,0.561-0.035,0.841-0.035c0.003,0,0.005,0,0.007,0l71.19,0.033c0.625-0.075,1.836-0.393,2.818-2.132
		c1.2-2.126,1.773-6.216-0.566-10.747c-4.477-8.648-10.622-16.494-16.042-23.029c-10.353-12.407-21.954-23.394-34.235-35.026
		c-4.331-4.102-8.81-8.344-13.179-12.609l0,0c-18.487-18.032-19.789-31.749-4.975-52.416c6.929-9.725,14.237-19.363,21.307-28.684
		c6.134-8.089,12.476-16.452,18.483-24.764l1.381-1.913c11.561-16.002,22.482-31.116,28.133-48.905
		c1.122-3.548,1.134-5.248,1.082-5.839c-0.504-0.318-2.033-1.088-5.745-1.721c-1.467-0.251-3.357-0.272-5.17-0.272l-77.905-0.069
		c-0.063,0-0.125,0-0.189-0.002c-4.586-0.097-6.508,0.779-8.62,6.098c-4.221,10.606-9.214,22.91-15.107,34.805
		c-11.309,23.035-25.784,49.693-47.28,72.508l-0.814,0.866c-4.568,4.879-13.078,13.96-25.941,9.756
		c-0.117-0.039-0.234-0.079-0.35-0.121c-14.129-5.192-18.279-24.13-18.1-32.67l-0.068-89.074c-0.453-3.181-1.192-7.251-2.486-8.973
		c-0.305-0.405-1.195-1.589-5.689-2.597H198.23c-3.257,0-5.604,0.452-7.686,1.536c11.723,5.318,19.165,15.729,21.302,30.142
		c3.032,20.117,3.422,41.446,1.225,67.098c-0.769,8.646-2.322,15.489-4.891,21.566c-3.982,9.428-9.894,12.897-14.154,14.147
		c-4.258,1.248-11.102,1.524-19.538-4.252c-9.208-6.301-15.475-15.144-20.509-22.25c-18.959-26.768-34.87-56.243-48.645-90.112
		c-2.916-7.135-6.767-8.15-10.149-8.2c-24.703-0.412-47.517-0.401-69.765,0.031C22.748,136.859,21.225,137.196,20.445,137.452z"/>
	<path style="fill:#3765A3;" d="M65.288,184.435c-3.725,0-7.316-2.048-9.111-5.6c-1.526-3.019-3.038-6.047-4.537-9.081
		c-2.495-5.05-0.423-11.167,4.627-13.661c5.053-2.496,11.166-0.422,13.661,4.627c1.471,2.978,2.956,5.95,4.454,8.914
		c2.54,5.027,0.525,11.161-4.502,13.703C68.405,184.082,66.834,184.435,65.288,184.435z"/>
	<path style="fill:#3765A3;" d="M130.156,291.697c-3.127,0-6.214-1.433-8.214-4.143c-17.258-23.383-33.375-48.728-49.271-77.485
		c-2.725-4.929-0.937-11.135,3.992-13.86c4.929-2.724,11.135-0.938,13.86,3.992c15.46,27.969,31.106,52.581,47.83,75.239
		c3.344,4.532,2.382,10.918-2.149,14.262C134.383,291.05,132.26,291.697,130.156,291.697z"/>
</g>
</svg>