<svg width="76" height="76" viewBox="0 0 76 76" fill="none" xmlns="http://www.w3.org/2000/svg">
<path d="M49.0547 34.2252L33.7455 26.2756C32.5544 25.6569 31.1019 25.7053 29.9542 26.4024C28.8073 27.0993 28.0946 28.3657 28.0946 29.7079V45.6593C28.0946 47.0034 28.8086 48.2711 29.9588 48.968C30.563 49.3337 31.2559 49.5271 31.9624 49.5271C32.5841 49.5271 33.2035 49.375 33.7541 49.0873L49.0633 41.0861C50.346 40.4162 51.1416 39.1006 51.1401 37.6526C51.1383 36.2055 50.3392 34.8921 49.0547 34.2252ZM47.6609 38.4023H47.6607L32.3512 46.4037C32.0962 46.5372 31.773 46.5268 31.5274 46.378C31.2776 46.2266 31.1224 45.9513 31.1224 45.6592V29.7079C31.1224 29.4165 31.2773 29.1416 31.5262 28.9904C31.6593 28.9096 31.8109 28.8689 31.963 28.8689C32.0959 28.8689 32.229 28.9 32.3496 28.9626L47.6591 36.9123C47.9382 37.0572 48.1117 37.3425 48.1121 37.6563C48.1123 37.971 47.9394 38.2569 47.6609 38.4023Z" fill="white"/>
<path d="M72.8003 15.7563C69.8441 12.2421 64.6454 10.8086 54.8569 10.8086H21.1425C11.12 10.8086 5.82988 12.3356 2.8828 16.0793C0 19.7419 0 24.7507 0 31.6834V44.3167C0 50.0108 0.480492 55.8288 3.96699 59.8099C7.18215 63.4813 12.6398 65.1913 21.1425 65.1913H54.857C63.3432 65.1913 68.1094 63.9425 71.3085 60.8809C74.5968 57.7338 76 52.78 76 44.3167V31.6834C76 24.3596 75.7773 19.2945 72.8003 15.7563ZM72.9722 44.3167C72.9722 51.8734 71.8485 56.173 69.2149 58.6933C66.6395 61.158 62.4799 62.1635 54.8572 62.1635H21.1425C5.6433 62.1635 3.02798 56.658 3.02798 44.3169V31.6835C3.02798 25.3598 3.02798 20.7907 5.26211 17.9524C7.56334 15.029 12.1642 13.8366 21.1427 13.8366L54.857 13.8364C63.6444 13.8364 68.1717 14.9574 70.4835 17.7056C72.7991 20.4575 72.9722 25.0267 72.9722 31.6834V44.3167Z" fill="white"/>
<path d="M50.7171 57.5299H49.3546C48.5185 57.5299 47.8407 58.2077 47.8407 59.0438C47.8407 59.88 48.5185 60.5577 49.3546 60.5577H50.7171C51.5533 60.5577 52.231 59.88 52.231 59.0438C52.231 58.2077 51.5533 57.5299 50.7171 57.5299Z" fill="white"/>
<path d="M43.4502 57.5299H19.5299C18.6938 57.5299 18.016 58.2077 18.016 59.0438C18.016 59.88 18.6938 60.5577 19.5299 60.5577H43.4502C44.2863 60.5577 44.9641 59.88 44.9641 59.0438C44.9641 58.2077 44.2863 57.5299 43.4502 57.5299Z" fill="white"/>
</svg>
